<svg width="1080" height="450" viewBox="0 0 1080 450" fill="none" xmlns="http://www.w3.org/2000/svg">
<rect width="1080" height="450" fill="url(#paint0_linear_263_118)"/>
<path d="M898.71 113.477C905.718 113.477 912.627 114.889 919.438 117.713C926.25 120.335 931.957 123.966 936.562 128.604V116.2C938.364 115.595 940.467 115.091 942.871 114.688C945.274 114.284 947.777 114.082 950.382 114.082C955.188 114.082 959.694 114.788 963.899 116.2V207.567C963.899 218.661 965.302 226.628 968.104 231.47C971.109 236.31 975.817 238.73 982.226 238.73C984.426 238.73 986.829 238.227 989.436 237.219C992.04 236.21 994.743 234.696 997.546 232.68C1000.95 234.292 1003.76 237.117 1005.96 241.15C1008.16 244.983 1009.16 248.816 1008.96 252.648C1005.76 256.278 1001.65 259.203 996.645 261.422C991.637 263.641 986.229 264.75 980.422 264.75H980.122C961.096 264.75 948.278 256.883 941.668 241.15C935.863 248.613 928.85 254.463 920.641 258.698C912.429 262.732 903.315 264.75 893.303 264.75C882.089 264.75 872.072 262.329 863.261 257.488C854.451 252.649 847.24 245.891 841.631 237.219L791.161 275.035C790.399 275.649 789.662 276.185 788.951 276.644V345.227C788.951 392.423 771.828 416.021 737.58 416.021C721.758 416.021 709.342 411.279 700.329 401.802C691.514 392.323 687.111 379.312 687.111 362.773C687.111 325.863 712.144 291.273 762.215 259.001V246.294C756.606 252.143 750.095 256.681 742.688 259.908C735.275 263.135 727.165 264.75 718.354 264.75C706.736 264.75 696.423 262.228 687.411 257.185C678.596 251.941 671.385 244.782 665.78 235.705C653.437 254.947 637.243 264.627 617.189 264.746C617.097 264.748 617.003 264.75 616.909 264.75C616.895 264.75 616.88 264.749 616.865 264.749C616.848 264.749 616.831 264.75 616.813 264.75C616.797 264.75 616.781 264.748 616.765 264.748C587.819 264.689 573.348 246.739 573.348 210.896V172.171C573.348 150.388 564.833 139.496 547.812 139.496C538.999 139.496 531.187 143.026 524.381 150.085C517.772 157.144 512.562 166.926 508.759 179.432C505.154 191.936 503.352 206.458 503.352 222.997V260.513C501.348 261.119 499.145 261.624 496.742 262.026C494.339 262.43 492.035 262.632 489.831 262.632C485.025 262.632 480.519 261.925 476.313 260.513V164.002C476.313 156.136 475.31 150.085 473.309 145.85C471.305 141.614 467.701 139.496 462.494 139.496C458.288 139.496 454.683 141.412 451.679 145.244C448.674 149.076 446.071 155.228 443.868 163.699L432.752 207.267C427.545 227.234 420.335 241.856 411.123 251.135C402.006 260.118 390.142 264.652 375.532 264.745C375.409 264.748 375.285 264.75 375.16 264.75C375.144 264.75 375.128 264.749 375.111 264.749C375.099 264.749 375.086 264.75 375.073 264.75C375.062 264.75 375.052 264.749 375.041 264.749C354.28 264.711 340.801 254.828 334.604 235.1C331.801 239.739 328.797 243.672 325.592 246.899C320.184 252.345 313.875 256.681 306.665 259.908C299.655 263.135 292.046 264.75 283.835 264.75C283.83 264.75 283.824 264.749 283.818 264.749C283.81 264.749 283.801 264.75 283.792 264.75C254.752 264.75 240.232 246.798 240.232 210.896V172.171C240.232 150.388 232.32 139.496 216.498 139.496C209.489 139.496 203.08 142.218 197.272 147.664C191.465 153.11 186.859 160.371 183.454 169.447C180.25 178.322 178.646 188.307 178.646 199.4V371.851C176.644 372.455 174.441 372.959 172.038 373.363C169.635 373.766 167.332 373.968 165.129 373.968C160.322 373.968 155.716 373.263 151.31 371.851V174.591C146.903 183.465 141.996 192.542 136.589 201.819C131.181 210.896 125.573 219.57 119.766 227.839C114.158 236.108 108.851 243.471 103.844 249.925C98.837 256.379 94.6311 261.321 91.2266 264.75C87.0208 263.742 83.1156 261.723 79.5107 258.698C76.1061 255.471 73.6022 251.84 72 247.807C88.6228 227.637 103.744 206.056 117.362 183.062C130.981 159.867 142.097 136.975 150.709 114.385C153.913 113.981 158.019 113.981 163.025 114.385C168.032 114.788 172.138 115.898 175.343 117.713V140.101C186.358 122.351 201.078 113.477 219.503 113.477C234.324 113.477 246.04 118.721 254.652 129.209C263.263 139.495 267.57 153.816 267.57 172.171V207.567C267.57 218.661 268.972 226.628 271.775 231.47C274.78 236.309 279.486 238.73 285.895 238.73H285.938C290.143 238.73 294.649 237.419 299.455 234.798C304.262 232.175 308.768 228.142 312.974 222.696C317.981 215.838 321.586 207.971 323.788 199.097C326.192 190.222 327.694 181.247 328.296 172.171V117.713C330.097 117.108 332.2 116.604 334.604 116.2C335.047 116.126 335.493 116.061 335.942 116H348.104C350.645 116.347 353.155 116.919 355.633 117.713V204.846C355.633 215.535 357.236 223.906 360.439 229.956C363.837 235.793 369.428 238.717 377.212 238.729C383.606 238.718 389.303 235.491 394.3 229.049C399.507 222.393 404.014 211.401 407.818 196.072L416.83 160.674C425.242 129.209 441.265 113.477 464.897 113.477C473.909 113.477 481.52 116.2 487.728 121.646C493.935 126.889 498.245 134.05 500.648 143.126C506.253 133.647 513.463 126.385 522.277 121.343C531.089 116.099 540.904 113.477 551.719 113.477C567.34 113.477 579.356 118.62 587.768 128.906C596.377 139.193 600.686 153.615 600.686 172.171V207.567C600.686 218.661 602.085 226.628 604.892 231.47C607.888 236.296 612.574 238.716 618.96 238.729C625.751 238.715 632.347 235.388 638.744 228.746C645.353 221.888 650.86 212.712 655.268 201.215C655.066 198.392 654.966 195.567 654.966 192.744C654.966 177.414 657.971 163.8 663.979 151.9C669.987 140.001 678.098 130.621 688.312 123.764C698.723 116.906 710.543 113.477 723.761 113.477C730.769 113.477 737.68 114.889 744.49 117.713C751.297 120.335 757.004 123.966 761.613 128.604V116.2C763.416 115.595 765.519 115.091 767.922 114.688C770.325 114.284 772.828 114.082 775.433 114.082C780.24 114.082 784.745 114.788 788.951 116.2V244.105L831.718 211.803C830.515 205.753 829.915 199.4 829.915 192.744C829.915 177.414 832.92 163.8 838.927 151.9C844.936 140 853.048 130.621 863.261 123.764C873.677 116.906 885.491 113.477 898.71 113.477ZM762.215 291.07C730.169 313.861 714.148 337.562 714.147 362.169C714.147 370.842 716.148 377.599 720.156 382.438C724.16 387.482 729.666 390.002 736.679 390.002C753.699 390.002 762.215 375.077 762.215 345.227V291.07ZM727.065 139.496C718.453 139.496 710.843 141.815 704.234 146.454C697.626 151.093 692.415 157.447 688.613 165.515C684.807 173.381 682.905 182.457 682.905 192.744C682.905 207.064 686.106 218.36 692.519 226.629C699.127 234.697 708.14 238.73 719.556 238.73C732.173 238.73 742.284 234.393 749.897 225.721C757.708 217.048 761.613 205.651 761.613 191.533V157.648C757.605 152.203 752.498 147.866 746.293 144.639C740.082 141.21 733.676 139.496 727.065 139.496ZM902.015 139.496C893.401 139.496 885.793 141.815 879.183 146.454C872.574 151.093 867.368 157.447 863.562 165.515C859.754 173.381 857.853 182.457 857.853 192.744C857.853 207.064 861.059 218.36 867.466 226.629C874.076 234.697 883.088 238.73 894.504 238.73C907.121 238.73 917.237 234.393 924.847 225.721C932.657 217.048 936.562 205.651 936.562 191.533V157.648C932.559 152.203 927.451 147.866 921.24 144.639C915.031 141.21 908.623 139.496 902.015 139.496Z" fill="#864643"/>
<path fill-rule="evenodd" clip-rule="evenodd" d="M709.794 343.133C703.413 343.118 698.214 337.843 698.204 331.375C698.189 324.904 703.373 319.65 709.747 319.667C716.123 319.677 721.325 324.952 721.337 331.425C721.356 337.892 716.174 343.145 709.794 343.133ZM832.576 339.938C837.062 335.372 837.042 327.975 832.539 323.394L824.297 315.007C822.036 312.704 818.372 312.697 816.117 314.977C813.855 317.267 813.865 320.983 816.127 323.278L818.583 325.77L732.08 325.578C729.042 313.789 717.335 305.53 704.237 308.564C695.912 310.487 689.164 317.321 687.26 325.754C683.787 341.134 695.243 354.835 709.82 354.866C720.589 354.893 729.538 347.408 732.101 337.307L818.598 337.494L816.153 339.974C813.9 342.259 813.937 345.897 816.204 348.193L816.218 348.213C818.486 350.507 822.139 350.544 824.384 348.254L832.576 339.938Z" fill="#1D1D1D"/>
<path d="M240.411 322.276C240.259 320.609 239.585 319.313 238.389 318.389C237.208 317.449 235.518 316.979 233.322 316.979C231.867 316.979 230.656 317.169 229.686 317.548C228.716 317.927 227.99 318.45 227.505 319.116C227.02 319.767 226.77 320.518 226.756 321.366C226.724 322.062 226.861 322.677 227.164 323.207C227.482 323.738 227.937 324.207 228.527 324.615C229.133 325.009 229.861 325.358 230.708 325.662C231.557 325.965 232.511 326.23 233.572 326.457L237.57 327.366C239.874 327.866 241.903 328.532 243.66 329.366C245.432 330.199 246.916 331.192 248.113 332.344C249.325 333.494 250.242 334.821 250.863 336.32C251.483 337.821 251.801 339.502 251.817 341.366C251.801 344.306 251.059 346.828 249.59 348.934C248.12 351.04 246.007 352.654 243.25 353.775C240.509 354.896 237.199 355.456 233.322 355.456C229.429 355.456 226.036 354.873 223.143 353.707C220.249 352.541 218 350.767 216.394 348.389C214.788 346.01 213.963 343.002 213.917 339.367H224.687C224.778 340.866 225.18 342.116 225.891 343.116C226.603 344.115 227.58 344.873 228.823 345.388C230.08 345.905 231.534 346.162 233.185 346.162C234.699 346.162 235.988 345.957 237.048 345.548C238.123 345.139 238.949 344.57 239.525 343.844C240.1 343.116 240.395 342.282 240.411 341.343C240.395 340.465 240.122 339.715 239.592 339.094C239.063 338.456 238.244 337.912 237.139 337.457C236.049 336.987 234.654 336.555 232.958 336.161L228.096 335.025C224.067 334.101 220.893 332.608 218.576 330.547C216.258 328.472 215.106 325.669 215.122 322.139C215.106 319.259 215.88 316.738 217.44 314.57C218.999 312.404 221.158 310.714 223.915 309.503C226.672 308.29 229.815 307.684 233.344 307.684C236.949 307.684 240.077 308.298 242.729 309.526C245.395 310.737 247.462 312.441 248.931 314.638C250.401 316.836 251.15 319.382 251.18 322.276H240.411ZM255.975 317.457V308.321H295.306V317.457H281.195V354.866H270.108V317.457H255.975ZM305.053 354.866H292.965L308.666 308.321H323.639L339.339 354.866H327.252L316.322 320.047H315.96L305.053 354.866ZM303.44 336.548H328.705V345.094H303.44V336.548ZM337.283 308.321H349.848L359.686 327.798H360.095L369.933 308.321H382.498L365.48 339.321V354.866H354.301V339.321L337.283 308.321ZM443.198 325.184H431.838C431.687 324.018 431.376 322.964 430.906 322.025C430.437 321.085 429.816 320.283 429.044 319.616C428.27 318.949 427.355 318.441 426.294 318.093C425.249 317.73 424.09 317.548 422.817 317.548C420.561 317.548 418.614 318.102 416.978 319.207C415.357 320.313 414.107 321.912 413.228 324.002C412.365 326.093 411.935 328.623 411.935 331.593C411.935 334.685 412.374 337.274 413.251 339.367C414.146 341.442 415.395 343.01 417.001 344.07C418.622 345.117 420.538 345.639 422.749 345.639C423.992 345.639 425.119 345.479 426.135 345.162C427.165 344.844 428.065 344.381 428.839 343.775C429.627 343.154 430.271 342.404 430.77 341.526C431.285 340.631 431.641 339.624 431.838 338.502L443.198 338.57C443.002 340.631 442.403 342.662 441.404 344.661C440.419 346.661 439.064 348.487 437.336 350.138C435.61 351.775 433.504 353.078 431.02 354.048C428.55 355.018 425.718 355.502 422.522 355.502C418.312 355.502 414.539 354.579 411.207 352.73C407.889 350.867 405.269 348.154 403.345 344.593C401.421 341.032 400.46 336.7 400.46 331.593C400.46 326.473 401.437 322.131 403.391 318.571C405.344 315.01 407.988 312.306 411.32 310.457C414.653 308.608 418.387 307.684 422.522 307.684C425.34 307.684 427.945 308.078 430.339 308.866C432.732 309.639 434.838 310.776 436.655 312.275C438.472 313.759 439.949 315.586 441.085 317.752C442.221 319.919 442.925 322.397 443.198 325.184ZM493.555 331.593C493.555 336.714 492.571 341.055 490.601 344.616C488.632 348.177 485.966 350.881 482.603 352.73C479.255 354.579 475.498 355.502 471.334 355.502C467.152 355.502 463.389 354.57 460.042 352.707C456.693 350.844 454.034 348.139 452.065 344.593C450.111 341.032 449.135 336.7 449.135 331.593C449.135 326.473 450.111 322.131 452.065 318.571C454.034 315.01 456.693 312.306 460.042 310.457C463.389 308.608 467.152 307.684 471.334 307.684C475.498 307.684 479.255 308.608 482.603 310.457C485.966 312.306 488.632 315.01 490.601 318.571C492.571 322.131 493.555 326.473 493.555 331.593ZM482.057 331.593C482.057 328.563 481.627 326.002 480.762 323.911C479.915 321.821 478.688 320.238 477.082 319.161C475.491 318.086 473.575 317.548 471.334 317.548C469.107 317.548 467.191 318.086 465.585 319.161C463.979 320.238 462.744 321.821 461.881 323.911C461.033 326.002 460.609 328.563 460.609 331.593C460.609 334.623 461.033 337.183 461.881 339.276C462.744 341.366 463.979 342.949 465.585 344.024C467.191 345.101 469.107 345.639 471.334 345.639C473.575 345.639 475.491 345.101 477.082 344.024C478.688 342.949 479.915 341.366 480.762 339.276C481.627 337.183 482.057 334.623 482.057 331.593ZM539.725 308.321V354.866H530.181L511.663 328.003H511.369V354.866H500.121V308.321H509.801L528.114 335.138H528.501V308.321H539.725ZM586.4 308.321V354.866H576.857L558.338 328.003H558.044V354.866H546.797V308.321H556.476L574.789 335.138H575.176V308.321H586.4ZM593.472 354.866V308.321H625.918V317.457H604.719V327.002H624.26V336.161H604.719V345.73H625.918V354.866H593.472ZM675.2 325.184H663.84C663.689 324.018 663.378 322.964 662.908 322.025C662.439 321.085 661.818 320.283 661.046 319.616C660.272 318.949 659.357 318.441 658.296 318.093C657.251 317.73 656.092 317.548 654.82 317.548C652.563 317.548 650.617 318.102 648.98 319.207C647.359 320.313 646.109 321.912 645.231 324.002C644.367 326.093 643.937 328.623 643.937 331.593C643.937 334.685 644.376 337.274 645.253 339.367C646.148 341.442 647.397 343.01 649.003 344.07C650.624 345.117 652.54 345.639 654.751 345.639C655.994 345.639 657.121 345.479 658.137 345.162C659.168 344.844 660.068 344.381 660.841 343.775C661.629 343.154 662.273 342.404 662.772 341.526C663.287 340.631 663.644 339.624 663.84 338.502L675.2 338.57C675.004 340.631 674.405 342.662 673.406 344.661C672.421 346.661 671.066 348.487 669.338 350.138C667.612 351.775 665.506 353.078 663.022 354.048C660.552 355.018 657.72 355.502 654.524 355.502C650.314 355.502 646.541 354.579 643.209 352.73C639.891 350.867 637.271 348.154 635.347 344.593C633.423 341.032 632.462 336.7 632.462 331.593C632.462 326.473 633.439 322.131 635.393 318.571C637.346 315.01 639.99 312.306 643.322 310.457C646.655 308.608 650.389 307.684 654.524 307.684C657.342 307.684 659.947 308.078 662.34 308.866C664.734 309.639 666.84 310.776 668.657 312.275C670.474 313.759 671.951 315.586 673.087 317.752C674.224 319.919 674.927 322.397 675.2 325.184Z" fill="black"/>
<path d="M847.881 316.035V306.899H887.213V316.035H873.102V353.444H862.015V316.035H847.881ZM892.705 353.444V306.899H925.15V316.035H903.952V325.58H923.493V334.739H903.952V344.307H925.15V353.444H892.705ZM949.394 353.444H932.194V306.899H949.372C954.113 306.899 958.196 307.83 961.619 309.693C965.058 311.542 967.708 314.209 969.572 317.693C971.435 321.164 972.366 325.315 972.366 330.148C972.366 334.996 971.435 339.163 969.572 342.648C967.724 346.134 965.08 348.807 961.642 350.67C958.203 352.519 954.121 353.444 949.394 353.444ZM943.441 343.852H948.964C951.568 343.852 953.772 343.413 955.575 342.535C957.392 341.641 958.763 340.194 959.687 338.193C960.627 336.178 961.096 333.497 961.096 330.148C961.096 326.8 960.627 324.133 959.687 322.148C958.749 320.148 957.362 318.709 955.53 317.83C953.711 316.937 951.47 316.489 948.804 316.489H943.441V343.852Z" fill="black"/>
<path d="M340.45 39C342.654 39 344.783 39.7291 349.041 41.1865L350.597 41.7188C358.764 44.5146 362.848 45.9128 363.874 47.374C364.9 48.8352 364.9 53.1784 364.9 61.8652V66.1436C364.9 81.4596 353.384 88.8926 346.159 92.0488C344.199 92.9048 343.219 93.333 340.45 93.333C337.681 93.333 336.701 92.9048 334.741 92.0488C327.516 88.8926 316 81.4596 316 66.1436V61.8652C316 53.1784 316.001 48.8352 317.026 47.374C318.052 45.9128 322.136 44.5146 330.304 41.7188L331.859 41.1865C336.117 39.7291 338.246 39 340.45 39ZM350.029 63.6582C350.029 59.1386 344.804 55.9334 340.529 60.2783C336.255 55.9333 331.029 59.1386 331.029 63.6582C331.029 68.1777 334.847 70.5865 337.643 72.7422C338.629 73.5029 339.579 74.2188 340.529 74.2188C341.479 74.2187 342.43 73.5029 343.416 72.7422C346.211 70.5865 350.029 68.1777 350.029 63.6582Z" fill="#864742"/>
<defs>
<linearGradient id="paint0_linear_263_118" x1="540" y1="0" x2="540" y2="450" gradientUnits="userSpaceOnUse">
<stop stop-color="#FFDAD9"/>
<stop offset="1" stop-color="#FEF9F7"/>
</linearGradient>
</defs>
</svg>
